<svg width="400" height="66" xmlns="http://www.w3.org/2000/svg">

 <g>
  <title>background</title>
  <rect fill="none" id="canvas_background" height="68" width="402" y="-1" x="-1"/>
 </g>
 <g>
  <title>Layer 1</title>
  <g id="svg_1">
   <g id="svg_2">
    <g id="svg_3">
     <path id="svg_4" fill="#f0bc5e" d="m28,17l0,3l1,0c1.657,0 3,1.343 3,3l1,0l0,-6l-5,0z"/>
    </g>
    <g id="svg_5">
     <path id="svg_6" fill="#f0bc5e" d="m13,20l1,0l0,-3l-5,0l0,6l1,0c0,-1.657 1.343,-3 3,-3z"/>
    </g>
   </g>
   <g id="svg_7">
    <path id="svg_8" fill="#f0bc5e" d="m18,3.419l0,9.581l6,0l0,-9.581c-0.954,-0.271 -1.959,-0.419 -3,-0.419s-2.046,0.148 -3,0.419z"/>
   </g>
   <g id="svg_9">
    <path id="svg_10" fill="#f0bc5e" d="m43,24l0,6l8,0l0,4l2,0l0,-4l0,-6l-10,0z"/>
   </g>
   <g id="svg_11">
    <path id="svg_12" fill="#f0bc5e" d="m40,36l4,0l0,10l-4,0l0,-10z"/>
   </g>
   <g id="svg_13">
    <path id="svg_14" fill="#f0bc5e" d="m51,41l4,0l0,4l-4,0l0,-4z"/>
   </g>
   <g id="svg_15">
    <path id="svg_16" d="m61.477,48l3.451,-8.628l-1.857,-0.743l-3.748,9.371l-0.323,0l0,-12l-2,0l0,-16l-4,0l0,-4l-2,0l0,4l-2,0l0,-6l-2,0l0,6l-2,0l0,-4l-2,0l0,4l-4,0l0,12l-4,0l0,5.129c-2.357,-2.894 -5.574,-5.002 -9.225,-5.968l-0.454,-1.361c1.458,-0.403 2.656,-1.434 3.255,-2.8l0.424,0c2.206,0 4,-1.794 4,-4s-1.794,-4 -4,-4l0,-1l4,0c1.103,0 2,-0.897 2,-2l0,-2c0,-1.103 -0.897,-2 -2,-2l-0.174,0c-0.957,-5.76 -5.883,-10 -11.826,-10s-10.869,4.24 -11.826,10l-0.174,0c-1.103,0 -2,0.897 -2,2l0,2c0,1.103 0.897,2 2,2l4,0l0,1c-2.206,0 -4,1.794 -4,4s1.794,4 4,4l0.424,0c0.6,1.366 1.797,2.398 3.255,2.8l-0.454,1.361c-7.815,2.061 -13.225,9.047 -13.225,17.181l0,0.658c0,4.264 2.444,7.961 6,9.786l0,5.214l30,0l0,-8l3.101,0c0.465,2.279 2.484,4 4.899,4s4.434,-1.721 4.899,-4l5.019,0c4.015,0 7.409,-2.875 8.069,-6.835l0.194,-1.165l-3.704,0zm-12.477,0l0,-10l8,0l0,10l-8,0zm-8,-26l14,0l0,14l-6,0l0,-4l-8,0l0,-10zm6,12l0,14l-10,0l0,-14l10,0zm-12,6.676l0,7.324l-0.323,0l-3.749,-9.372l-1.857,0.743l3.452,8.629l-3.703,0l0.194,1.165c0.265,1.59 0.976,3.001 1.986,4.125l0,8.71l-5,0l0,-2c1.654,0 3,-1.346 3,-3s-1.346,-3 -3,-3l0,-20.673c3.813,1.212 7.038,3.828 9,7.349zm-11.721,-10.676l0.617,1.852l-2.896,4.345l-2.897,-4.345l0.618,-1.852l4.558,0zm0.721,10.149l-1.762,-2.203l1.762,-2.643l0,4.846zm-6,0l0,-4.846l1.762,2.643l-1.762,2.203zm0,3.201l3,-3.75l3,3.75l0,8.826c-0.314,-0.111 -0.649,-0.176 -1,-0.176l-1.171,0c-0.801,0 -1.555,0.312 -2.122,0.879l-1.026,1.026l-0.681,-0.152l0,-10.403zm2,12.064l1.121,-1.121c0.189,-0.189 0.441,-0.293 0.708,-0.293l1.171,0c0.551,0 1,0.449 1,1l0,1l2,0c0.551,0 1,0.449 1,1s-0.449,1 -1,1l-6,0l0,-2.586zm4,4.586l0,2l-6,0l0,-2l6,0zm7,-37c0,1.103 -0.897,2 -2,2l0,-4c1.103,0 2,0.897 2,2zm-10,-19c4.838,0 8.869,3.371 9.796,8l-19.592,0c0.927,-4.629 4.958,-8 9.796,-8zm-12.001,10l0.001,0l24,0l0,2l-24,0l-0.001,-2zm2.001,9c0,-1.103 0.897,-2 2,-2l0,4c-1.103,0 -2,-0.897 -2,-2zm4,2l0,-7l12,0l0,7c0,1.654 -1.346,3 -3,3l-6,0c-1.654,0 -3,-1.346 -3,-3zm-10,24l0,-0.658c0,-6.96 4.464,-12.968 11,-15.029l0,19.997l-1.085,-0.241c-2.305,-0.513 -3.915,-2.52 -3.915,-4.882l0,-4.187l-2,0l0,4.187c0,3.306 2.254,6.116 5.481,6.833l3.519,0.782l0,2.198l-4,0c-4.962,0 -9,-4.038 -9,-9zm6,10.574c0.955,0.271 1.959,0.426 3,0.426l2,0l0,2l-5,0l0,-2.426zm22,2.426l0,-7.086c1.183,0.68 2.55,1.068 4,1.083l0,6.003l-4,0zm14,-4c-1.654,0 -3,-1.346 -3,-3c0,-0.551 0.449,-1 1,-1l4,0c0.551,0 1,0.449 1,1c0,1.654 -1.346,3 -3,3zm9.917,-4l-5.102,0c-0.414,-1.161 -1.514,-2 -2.816,-2l-4,0c-1.302,0 -2.402,0.839 -2.816,2l-5.102,0c-2.624,0 -4.896,-1.625 -5.785,-4l31.404,0c-0.887,2.375 -3.158,4 -5.783,4z"/>
    <path id="svg_17" d="m47,24l2,0l0,2l-2,0l0,-2z"/>
    <path id="svg_18" d="m43,24l2,0l0,2l-2,0l0,-2z"/>
    <path id="svg_19" d="m51,24l2,0l0,2l-2,0l0,-2z"/>
    <path id="svg_20" d="m51,28l2,0l0,2l-2,0l0,-2z"/>
    <path id="svg_21" d="m43,28l2,0l0,2l-2,0l0,-2z"/>
    <path id="svg_22" d="m47,28l2,0l0,2l-2,0l0,-2z"/>
    <path id="svg_23" d="m51,32l2,0l0,2l-2,0l0,-2z"/>
    <path id="svg_24" d="m39,36l2,0l0,10l-2,0l0,-10z"/>
    <path id="svg_25" d="m43,36l2,0l0,10l-2,0l0,-10z"/>
    <path id="svg_26" d="m51,40l4,0l0,2l-4,0l0,-2z"/>
    <path id="svg_27" d="m51,44l4,0l0,2l-4,0l0,-2z"/>
   </g>
  </g>
  <text style="cursor: move;" transform="matrix(1.11601, 0, 0, 1.54534, -8.18165, -4.30078)" font-style="normal" font-weight="normal" xml:space="preserve" text-anchor="start" font-family="'Montserrat ExtraBold'" font-size="24" id="svg_29" y="31.69192" x="78.487" stroke-width="0" stroke="#000" fill="#ffaa56">CONSTRUCCION HOY</text>
 </g>
</svg>